# xmcd
#
# Track frame offsets: 
#        150
#        30454
#        57618
#        83503
#        108821
#        132244
#        159015
#        188552
#        213941
#        242969
#
# Disc length: 3489 seconds
#
# Revision: 0
# Processed by: cddbd v1.5.2PL0 Copyright (c) Steve Scherf et al.
# Submitted via: ExactAudioCopy v1.0b3
#
DISCID=750d9f0a
DTITLE=Various Artist - Sao Chua Thay Hoi Am
DYEAR=1990
DGENRE=
TTITLE0=Huong Lan - Ngay xua anh noi
TTITLE1=Giao Linh - Sao chua thay hoi am
TTITLE2=Luu Hong - Trang tan tren he pho
TTITLE3=Anh Thoai - Nguoi nhap cuoc
TTITLE4=Giao Linh - Nua dem nguyen cau
TTITLE5=Huong Lan - Nguoi yeu co don
TTITLE6=Luu Hong - Loai hoa khong vo
TTITLE7=Anh Thoai - Nhan dien thoi gian
TTITLE8=Giao Linh - Vong gac dem suong
TTITLE9=Anh Thoai - Xin dung yeu toi
EXTD=
EXTT0=
EXTT1=
EXTT2=
EXTT3=
EXTT4=
EXTT5=
EXTT6=
EXTT7=
EXTT8=
EXTT9=
PLAYORDER=
